<svg id="svg" version="1.1" xmlns="http://www.w3.org/2000/svg" xmlns:xlink="http://www.w3.org/1999/xlink" width="100" height="100" viewBox="0 0 400 400">
  <g id="svgg">
    <path id="path0" d="M23.363 116.767 C23.453 117.216,112.408 279.652,112.543 279.616 C112.613 279.598,126.341 253.933,143.050 222.583 L173.430 165.583 202.566 165.541 C225.856 165.508,231.686 165.541,231.621 165.708 C231.576 165.823,218.106 191.379,201.689 222.500 L171.838 279.083 200.869 279.125 C216.835 279.149,229.953 279.111,230.020 279.042 C230.086 278.973,243.833 253.417,260.569 222.250 L290.998 165.583 320.597 165.500 L350.196 165.417 362.609 142.667 C369.435 130.154,375.435 119.148,375.940 118.208 L376.859 116.500 259.298 116.500 L141.737 116.500 126.840 144.167 C118.647 159.383,111.891 171.833,111.827 171.833 C111.764 171.833,104.796 159.383,96.342 144.167 L80.973 116.500 52.141 116.500 C25.764 116.500,23.313 116.523,23.363 116.767" stroke="none" fill="#fbfafa" fill-rule="evenodd"></path>
    <path id="path1" d="M17.901 113.958 C19.415 116.903,112.483 286.690,112.584 286.690 C112.653 286.690,126.833 260.191,144.095 227.803 L175.480 168.917 200.834 168.874 C214.778 168.851,226.154 168.889,226.114 168.958 C225.793 169.511,166.477 282.033,166.399 282.236 C166.307 282.476,169.240 282.499,199.191 282.494 L232.083 282.488 262.583 225.661 L293.083 168.835 322.655 168.792 L352.227 168.750 366.873 141.917 C374.928 127.158,381.741 114.652,382.012 114.125 L382.505 113.167 261.101 113.167 L139.698 113.167 125.743 139.085 L111.788 165.003 97.413 139.127 L83.037 113.250 50.265 113.208 L17.494 113.166 17.901 113.958" stroke="none" fill="#dca43c" fill-rule="evenodd"></path>
    <path id="path2" d="M34.333 123.226 C34.333 123.389,112.353 265.755,112.460 265.786 C112.528 265.806,125.378 241.806,141.016 212.453 L169.449 159.083 205.992 159.041 C240.755 159.001,242.530 159.013,242.424 159.291 C242.362 159.452,228.929 184.951,212.573 215.955 C196.216 246.959,182.833 272.366,182.833 272.413 C182.833 272.461,192.574 272.500,204.480 272.500 L226.127 272.500 256.603 215.750 L287.079 159.001 316.665 158.959 L346.250 158.917 355.952 141.167 C361.288 131.404,365.657 123.360,365.660 123.292 C365.664 123.223,316.148 123.170,255.625 123.173 L145.583 123.179 128.772 154.431 C119.525 171.619,111.923 185.645,111.876 185.599 C111.830 185.552,104.011 171.505,94.501 154.382 L77.209 123.250 55.771 123.208 C43.980 123.184,34.333 123.193,34.333 123.226" stroke="none" fill="#7c2c4c" fill-rule="evenodd"></path>
    <path id="path3" d="M182.667 272.542 C182.667 272.610,192.473 272.649,204.458 272.627 C216.444 272.605,222.725 272.567,218.417 272.543 C197.714 272.429,182.667 272.429,182.667 272.542" stroke="none" fill="#a87185" fill-rule="evenodd"></path>
    <path id="path4" d="M34.167 123.125 C34.167 123.238,49.020 123.237,69.500 123.123 C73.762 123.099,67.556 123.062,55.708 123.040 C43.860 123.018,34.167 123.056,34.167 123.125 M200.722 123.125 C231.048 123.148,280.623 123.148,310.889 123.125 C341.154 123.102,316.342 123.083,255.750 123.083 C195.158 123.083,170.396 123.102,200.722 123.125" stroke="none" fill="#bc94a4" fill-rule="evenodd"></path>
  </g>
</svg>
